<svg xmlns="http://www.w3.org/2000/svg" width="324" height="324"><path fill="#FBB917" d="m33.404 1.606 3.462-.019c3.824-.017 7.649-.012 11.473-.007q4.116-.01 8.23-.026a5861 5861 0 0 1 20.03-.023 10126 10126 0 0 0 20.982-.017l2.361-.003c14.728-.019 29.455-.018 44.183-.01 13.463.005 26.925-.016 40.388-.05q20.751-.05 41.502-.043c7.762.002 15.524-.003 23.287-.028q9.914-.033 19.827-.006 5.054.016 10.108-.01c3.66-.019 7.318-.006 10.978.015 1.583-.02 1.583-.02 3.198-.038 8.059.096 14.724 2.086 20.738 7.649 7.144 7.54 8.294 14.351 8.243 24.414l.019 3.462c.017 3.824.012 7.649.007 11.473q.01 4.116.026 8.23c.02 6.677.025 13.354.023 20.03a10126 10126 0 0 0 .017 20.982l.003 2.361c.019 14.728.018 29.455.01 44.183-.005 13.463.016 26.925.05 40.388q.05 20.751.043 41.502c-.002 7.762.003 15.524.028 23.287q.033 9.914.006 19.827-.016 5.054.01 10.108c.019 3.66.006 7.318-.015 10.978l.038 3.198c-.096 8.059-2.086 14.724-7.649 20.738-7.54 7.144-14.351 8.294-24.414 8.243l-3.462.019c-3.824.017-7.649.012-11.473.007q-4.116.01-8.23.026c-6.677.02-13.354.025-20.03.023a10126 10126 0 0 0-20.982.017l-2.361.003c-14.728.019-29.455.018-44.183.01-13.463-.005-26.925.016-40.388.05q-20.751.05-41.502.043c-7.762-.002-15.524.003-23.287.028q-9.913.033-19.827.006-5.054-.016-10.108.01c-3.66.019-7.318.006-10.978-.015l-3.198.038c-8.059-.096-14.724-2.086-20.738-7.649-7.144-7.54-8.294-14.351-8.243-24.414l-.019-3.462c-.017-3.824-.012-7.649-.007-11.473q-.01-4.116-.026-8.23a5861 5861 0 0 1-.023-20.03 10126 10126 0 0 0-.017-20.982l-.003-2.361c-.019-14.728-.018-29.455-.01-44.183.005-13.463-.016-26.925-.05-40.388q-.05-20.751-.043-41.502c.002-7.762-.003-15.524-.028-23.287q-.033-9.913-.006-19.827.016-5.054-.01-10.108c-.019-3.66-.006-7.318.015-10.978l-.038-3.198c.096-8.059 2.086-14.724 7.649-20.738 7.54-7.144 14.351-8.294 24.414-8.243"/><path fill="#FFFEFE" d="M159 31c27.711 12.847 53.82 27.198 78 46l1.829 1.41c2.693 2.144 4.059 3.254 5.171 6.59a75 75 0 0 1-5.125 6.25l-1.64 1.859a896 896 0 0 1-3.465 3.903c-2.849 3.2-5.652 6.438-8.458 9.676l-1.655 1.904c-3.945 4.547-7.76 9.186-11.548 13.865-2.84 3.424-5.835 6.694-8.832 9.98-3.264 3.674-6.347 7.486-9.43 11.313C192 146 192 146 190 148c-.838 2.783-.838 2.783 0 6 1.669 1.907 3.508 3.394 5.484 4.98 2.783 2.234 5.393 4.601 8.016 7.02l1.502 1.38c4.456 4.103 8.886 8.233 13.31 12.37l1.993 1.86C232.853 193.37 232.853 193.37 236 198c-1.481 3.44-3.424 5.67-6.07 8.3l-2.47 2.464-2.585 2.548-2.516 2.514c-4.379 4.349-8.841 8.526-13.519 12.55-2.916 2.574-5.622 5.343-8.34 8.124-4.05 4.1-8.146 8.031-12.543 11.762-3.244 2.881-6.244 6.005-9.27 9.113-2.765 2.7-5.64 5.22-8.56 7.751-3.586 3.159-7.037 6.459-10.502 9.749-9.841 9.292-9.841 9.292-14.375 13.438l-2.172 1.988c-2.24 1.831-4.565 3.271-7.078 4.699.592-8.384 2.76-16.25 5-24.312l.594-2.17a596 596 0 0 1 10.662-34.709l1.092-3.258.969-2.823c.774-3.092 1.032-5.555.683-8.728-1.348-1.859-1.348-1.859-3.375-3.191l-2.212-1.653-2.413-1.719a2979 2979 0 0 1-4.984-3.71l-2.553-1.882c-3.658-2.74-7.187-5.627-10.713-8.532a739 739 0 0 0-14.875-11.875c-5.405-4.21-10.638-8.589-15.81-13.08-4.548-3.947-9.21-7.714-13.956-11.42-2.173-1.996-3.164-3.166-4.109-5.938.697-2.213.697-2.213 2.05-4.656l1.532-2.806 1.73-3.038 1.774-3.189c6.67-11.873 13.768-23.492 20.923-35.078a1192 1192 0 0 0 5.296-8.69C122.334 81.666 132.125 67.323 142 53l1.94-2.822a1488 1488 0 0 1 4.935-7.115l1.385-2.003c2.632-3.734 5.417-6.922 8.74-10.06"/></svg>