<svg xmlns="http://www.w3.org/2000/svg" viewBox="0 0 76.71 76.71"><rect width="76.71" height="76.71" fill="#69a9c7" rx="6.57" ry="6.57"/><path fill="#fff" d="m41 27.35 9.18 32.02 17.37-12.62-8.03-24.71L41 27.35zM52.3 37.6c-2.52 0-4.56-2.04-4.56-4.56s2.04-4.56 4.56-4.56 4.56 2.04 4.56 4.56-2.04 4.56-4.56 4.56z" class="cls-1"/><path fill="#fff" d="m37.9 38.21-4.29-14.95 24.07-6.9-1.28-3.93H20.3L9.15 46.75l28.75-8.54zM26.03 15.23c1.87 0 3.38 1.51 3.38 3.38s-1.51 3.38-3.38 3.38-3.38-1.51-3.38-3.38 1.51-3.38 3.38-3.38zm13.01 26.95-25.69 7.63 25 18.17 6.69-4.87-6-20.93z" class="cls-1"/></svg>